<?xml version="1.0" encoding="UTF-8" standalone="no"?>
<!-- Created with Inkscape (http://www.inkscape.org/) -->

<svg
   width="3840"
   height="2160"
   viewBox="0 0 3840 2160"
   version="1.1"
   id="svg5"
   xmlns="http://www.w3.org/2000/svg"
   xmlns:svg="http://www.w3.org/2000/svg">
  <defs
     id="defs2" />
  <g
     id="layer1"
     transform="translate(-0.5,-0.5)">
    <rect
       style="fill:#161320;"
       id="rect1142"
       width="3840"
       height="2160"
       x="0.5"
       y="0.5" />
    <path
       id="polygon1355"
       style="fill:#96cdfb;"
       d="m 3176.3167,701.85497 h -17.8149 v 127.82215 h 16.0335 v -99.76363 h 0.4453 l 64.1338,99.76363 h 17.3696 V 701.85497 h -16.0335 v 99.31826 h -0.4454 z m 62.7977,542.91013 h 17.3696 v -127.8222 h -16.0335 v 99.3183 h -0.4454 l -63.6884,-99.3183 h -17.8149 v 127.8222 h 16.0335 v -99.7636 h 0.4453 z M 2710.0108,518.80652 c 14.252,8.01672 31.6215,8.01672 31.6215,8.01672 17.3696,0 31.1762,-8.01672 31.1762,-8.01672 13.8065,-8.01672 21.8233,-23.15942 21.8233,-23.15942 8.0167,-15.14269 8.0167,-34.73912 8.0167,-34.73912 0,-20.0418 -8.0167,-34.73912 -8.0167,-34.73912 -8.0168,-14.69732 -21.8233,-23.15942 -21.8233,-23.15942 -13.8066,-8.01672 -31.1762,-8.01672 -31.1762,-8.01672 -17.3695,0 -31.1761,8.01672 -31.1761,8.01672 -14.252,8.01672 -21.8233,23.15942 -21.8233,23.15942 -8.0167,15.14269 -8.0167,34.73912 -8.0167,34.73912 0,19.15106 8.0167,34.29375 8.0167,34.29375 7.5713,15.58807 21.3779,23.60479 21.3779,23.60479 z m -6.6806,-85.06631 c 5.3445,-11.57971 15.5881,-17.81494 15.5881,-17.81494 9.7982,-6.23523 22.714,-6.23523 22.714,-6.23523 12.9158,0 22.7141,6.23523 22.7141,6.23523 9.7982,6.23523 15.588,17.81494 15.588,17.81494 5.3445,11.5797 5.3445,27.61314 5.3445,27.61314 0,16.03345 -5.3445,27.61315 -5.3445,27.61315 -5.3445,11.57971 -15.588,17.81494 -15.588,17.81494 -9.7983,6.23522 -22.2687,6.23522 -22.2687,6.23522 -12.4705,0 -22.2687,-6.23522 -22.2687,-6.23522 -9.7982,-6.23523 -15.588,-17.81494 -15.588,-17.81494 -5.3445,-11.5797 -5.3445,-27.16777 -5.3445,-27.16777 -0.8908,-16.03344 4.4537,-28.05852 4.4537,-28.05852 z M 2328.3258,1173.06 c -13.8066,-8.0167 -31.1761,-8.0167 -31.1761,-8.0167 -17.3696,0 -31.1762,8.0167 -31.1762,8.0167 -14.2519,8.0167 -21.8233,23.1594 -21.8233,23.1594 -8.0167,15.1427 -8.0167,34.7391 -8.0167,34.7391 0,19.1511 8.0167,34.2938 8.0167,34.2938 8.0168,15.1427 21.8233,23.1594 21.8233,23.1594 13.8066,8.0167 31.6215,8.0167 31.6215,8.0167 17.3696,0 31.1762,-8.0167 31.1762,-8.0167 13.8066,-8.0167 21.8233,-23.1594 21.8233,-23.1594 8.0167,-15.1427 8.0167,-34.7392 8.0167,-34.7392 0,-20.0418 -8.0167,-34.7391 -8.0167,-34.7391 -8.0167,-14.6973 -22.2687,-22.714 -22.2687,-22.714 z m 6.6806,85.5117 c -5.3445,11.5797 -15.5881,17.8149 -15.5881,17.8149 -9.7982,6.2352 -22.2686,6.2352 -22.2686,6.2352 -12.4705,0 -22.7141,-6.2352 -22.7141,-6.2352 -9.7982,-6.2352 -15.1427,-17.8149 -15.1427,-17.8149 -5.7898,-11.5797 -5.7898,-27.1678 -5.7898,-27.1678 0,-16.0334 5.3445,-28.0585 5.3445,-28.0585 5.3444,-11.5797 15.1427,-17.815 15.1427,-17.815 9.7982,-6.2352 22.714,-6.2352 22.714,-6.2352 12.9158,0 22.714,6.2352 22.714,6.2352 9.7983,6.2353 15.1427,17.815 15.1427,17.815 5.3445,11.5797 5.3445,27.6131 5.3445,27.6131 0.8908,16.0335 -4.8991,27.6132 -4.8991,27.6132 z m 455.1716,35.1845 V 1165.934 h -15.5881 v 99.3183 h -0.4453 l -64.1338,-99.3183 h -17.3696 v 127.8222 h 16.0335 v -99.7637 l 64.1338,99.7637 z M 2524.7355,937.45748 h -10.689 v 136.28422 l -151.4269,87.2932 5.7898,9.3528 145.6371,-84.1755 v 8.4621 8.9074 3.1177 l 10.2436,6.2352 7.5714,4.0083 -146.0825,84.1756 5.3445,9.3528 151.4269,-87.2931 122.4777,70.8143 5.3445,-8.9074 -145.6371,-84.621 v -5.7898 z m -54.3356,-156.32605 v 127.82215 h 16.0335 v -99.76363 h 0.4453 l 64.1338,99.76363 h 16.9242 V 781.13143 h -16.0334 v 99.31826 l -64.1338,-99.31826 z m 762.3997,-107.95364 49.1941,-151.19148 10.1641,3.30717 -49.194,151.19147 z M 2958.0838,850.1643 v 250.2998 l -145.6371,84.621 5.3445,8.9074 146.5278,-84.6209 165.6789,53.8902 3.1176,-10.2436 -164.3428,-53.4448 V 851.05504 l 164.3428,-53.4448 -3.1176,-10.24359 -165.6789,53.89018 -194.6282,-112.23409 V 555.77251 h -10.2435 v 167.01501 l -14.252,-8.01672 -3.563,-2.22687 -4.0083,2.22687 -13.8066,8.01672 V 555.77251 h -10.689 v 173.25023 l -122.923,71.25974 5.3444,8.90747 140.738,-81.05795 5.3445,-3.11762 4.8991,3.11762 v -0.44538 z m 272.573,213.6476 70.3977,-96.9346 8.6484,6.28084 -70.3977,96.93456 z m 131.826,-91.6153 -2.6722,-4.00836 -2.2269,-3.11762 -84.1756,-115.79707 -8.462,6.23523 83.7301,115.79707 1.7815,2.22687 1.3362,1.78149 -83.7302,115.35169 8.4621,6.2352 81.0579,-111.3433 v -0.44537 l 4.8991,-6.6806 2.6723,-3.11762 z m -626.195,350.0635 h 10.689 v 166.5696 h -10.689 z m -441.7582,-598.88176 5.3488,-9.25451 148.4577,85.80297 -5.3488,9.2545 z m 709.873,150.39075 h 10.689 v 203.09021 h -10.689 z" />
  </g>
</svg>
