<?xml version="1.0" encoding="UTF-8" standalone="no"?>
<!-- Created with Inkscape (http://www.inkscape.org/) -->

<svg
   width="199.04204mm"
   height="111.54203mm"
   viewBox="0 0 199.04204 111.54203"
   version="1.1"
   id="svg5"
   xmlns="http://www.w3.org/2000/svg"
   xmlns:svg="http://www.w3.org/2000/svg">
  <defs
     id="defs2">
    <clipPath
       clipPathUnits="userSpaceOnUse"
       id="clipPath7064">
      <path
         id="path7066"
         style="fill:none;stroke:#f00000;stroke-width:0.936001;stroke-linecap:round;paint-order:stroke fill markers"
         d="M 1.8225491,20.082459 H 201.82256 V 132.58246 H 1.8225491 Z" />
    </clipPath>
  </defs>
  <g
     id="layer1"
     transform="translate(-2.5978684,-42.267166)">
    <rect
       style="fill:#1e1e2e;"
       id="rect7090"
       width="199.04204"
       height="111.54203"
       x="2.8344336"
       y="41.903187" />
    <path
       id="path11074"
       style="fill:none;stroke:#f5e0dc;stroke-width:0.1;stroke-linecap:round;stroke-miterlimit:4;stroke-dasharray:none"
       d="m 4.3686872,131.04977 c 2.2599689,3.1748 4.5895604,6.41229 6.9451478,9.65907 m 0,0 c 0.507792,0.69986 1.016779,1.40017 1.526539,2.10042 m 0,0 c 2.18491,3.00118 4.383984,6.00044 6.562804,8.95563 m 69.01776,-0.1553 c 3.620575,-3.03855 7.442295,-6.00859 11.438905,-8.81342 m 0,0 c 14.744557,-10.34781 31.869567,-18.44718 50.056857,-19.44433 14.30558,-0.78436 28.89754,-2.81209 41.51739,-4.76794 m 0,0 c 3.21036,-0.49757 6.29309,-0.99045 9.21103,-1.45705 m -0.18122,16.13788 c -3.10902,1.65287 -6.1652,3.03627 -9.17246,4.17151 m 0,0 C 133.68877,159.61162 91.760266,102.99282 42.326475,84.849463 31.954258,81.042617 25.615812,75.076101 11.353843,73.043919 m 0,0 C 9.0899029,72.721356 6.7893934,72.407709 4.4614447,72.104482 m -0.066032,47.280258 c 2.3870673,0.16153 4.7010261,0.2404 6.9441143,0.24126 m 0,0 c 53.248843,0.0209 66.560319,-43.908447 69.91935,-69.314647 m 0,0 c 0.158041,-1.195372 0.294054,-2.34974 0.411157,-3.456604 0.103822,-0.981307 0.401733,-1.95981 0.879809,-2.933658 m -5.450673,-0.01522 c 0.717328,1.991807 1.54579,4.117697 2.489516,6.384846 m 0,0 c 1.43889,3.456691 3.145727,7.241733 5.135131,11.380574 6.122764,12.738086 39.745163,61.464049 45.036953,70.086069 4.26232,6.9447 -17.38129,4.22877 -15.6461,10.7225 9.0955,34.03861 -47.682761,-79.123264 1.50374,-24.4915 9.25755,10.28242 35.72349,-3.95294 31.11092,-20.975346 -7.71437,-28.469389 -8.53119,-46.166268 -3.46108,-53.100553 m 16.82596,-0.02236 c 8.16321,4.613431 19.03488,12.725725 27.12348,19.421632 8.08859,6.695907 10.51899,6.977067 13.24846,6.290902 m -0.007,46.499535 c -3.13263,1.76126 -6.20018,3.44958 -9.20075,5.06942 m 0,0 c -16.98478,9.16921 -31.82203,16.14403 -44.1498,21.72945 m 0,0 c -7.3899,3.34818 -13.87804,6.19711 -19.38645,8.72015 m 11.75716,0.009 c 0.26901,-2.83433 0.45746,-5.78135 0.57022,-8.80267 m 0,0 c 1.0646,-28.50604 -24.70909,-66.939321 -33.00043,-76.424949 -6.8175,-7.799459 10.91485,-11.483536 7.12988,-16.106147 m 0,0 c -5.11095,-6.241964 -12.80166,-8.152504 -37.505472,-1.855799 -3.00977,0.767158 -5.933794,1.392883 -8.76924,1.892596 m 0,0 c -14.134642,2.491132 -26.068249,1.851334 -35.450955,-0.0065 m 0,0 C 24.213929,48.694902 17.941779,46.124156 13.873481,43.90928 m -9.4850447,53.1716 c 2.2574904,1.7231 4.5782275,3.22999 6.9337407,4.52766 m 0,0 c 22.637942,12.47145 48.488148,5.61943 52.279519,-14.335353 2.05259,-10.803203 1.912864,-24.543764 2.660889,-36.986586 m 0,0 c 0.130862,-2.176705 0.288888,-4.313729 0.490572,-6.388328 m 108.235853,-0.02606 c 0.57101,1.955918 1.15259,4.071801 1.74732,6.358418 m 0,0 c 0.19072,0.733181 0.38273,1.483937 0.57622,2.252597 C 186.81184,90.22221 141.24359,95.793712 110.69448,86.35511 87.629759,79.228917 73.543375,61.774189 95.824943,53.166855 c 2.181392,-0.842669 4.128699,-1.794713 5.861517,-2.839167 m 0,0 c 3.10414,-1.871018 5.51995,-4.03863 7.36002,-6.405403 m 14.16795,0.01218 c 1.50892,2.196606 3.04706,4.327 4.60851,6.394092 m 0,0 c 14.18785,18.782061 42.2524,33.967393 47.56434,50.301763 6.6547,20.46335 6.75297,9.5398 13.85661,7.45988 7.10363,-2.07992 9.40124,6.42794 11.23606,9.17191 m -9.1e-4,10.46759 c -1.74718,2.21654 -4.72829,4.46753 -9.15481,6.85569 m 0,0 c -4.70521,2.53852 -11.04357,5.23206 -19.26912,8.20404 m 0,0 c -6.72286,2.42904 -14.70636,5.04409 -24.08918,7.91254 -1.04244,0.31869 -2.07654,0.62916 -3.10237,0.93149 m -91.79298,-0.017 c -3.897837,-2.5263 -7.105778,-5.49444 -9.674159,-8.80014 m 0,0 c -5.361757,-5.8156 -16.334696,-5.49246 -19.090022,-12.5315 -1.965283,-5.02073 3.830238,-8.04876 5.767359,-14.87814 3.110099,-10.96474 5.38329,-26.538907 18.067856,-36.898085 C 54.241173,69.55428 58.173557,59.751092 60.408157,50.31582 m 0,0 c 0.510554,-2.155756 0.932484,-4.292305 1.271383,-6.395136 m -26.884699,0.0037 c -0.01253,2.197823 0.117025,4.326367 0.364392,6.396418 m 0,0 c 3.444218,28.822062 34.154476,84.361188 -4.689725,84.996908 -30.75172551,0.50329 11.896836,4.82714 6.828066,7.50523 m 0,0 c -8.573041,4.52958 -20.449851,6.41134 -32.8954956,6.50267 M 6.3659539,116.14968 C 110.94281,116.50995 180.92567,89.821661 193.65335,81.149405 206.38103,72.477149 189.6886,73.765883 186.08401,73.302281 145.58445,68.093464 -6.1816861,106.03297 81.496264,137.07937 c 3.853384,1.36447 -23.381051,1.27838 -23.934531,5.71122 m 0,0 c -0.358847,2.87403 -0.651068,5.82012 -0.880463,8.81123 m 32.483631,0.003 c 0.156625,-3.00103 0.265531,-5.93855 0.331173,-8.81374 m 0,0 C 90.500722,98.7881 81.3731,69.380734 78.079395,50.311158 m 0,0 C 77.685764,48.032155 77.37546,45.900806 77.175729,43.909822 m 114.450061,0.01587 c -1.62522,2.402859 -3.74275,4.515545 -6.27007,6.395134 m 0,0 c -18.54346,13.790935 -81.69239,17.250071 -104.794999,28.90698 -7.633386,3.851587 -15.26671,5.134914 -9.618219,12.529779 53.127358,69.553025 -4.001787,31.354065 -17.888128,33.384235 -3.947679,0.57715 9.352725,12.67529 13.084651,17.67194 m 0,0 c 1.461907,3.0611 3.169341,6.0147 5.083503,8.80434 m 70.805452,-0.003 c 1.78888,-2.88276 3.25208,-5.82936 4.43119,-8.80327 m 0,0 c 20.29659,-43.385298 -16.93252,-89.698918 -23.65785,-79.615143 -3.34166,4.706161 13.6305,29.648985 -6.82418,36.415192 C 95.522473,106.37851 47.330453,74.962461 34.530647,67.751986 28.326787,64.257187 29.63426,55.530841 29.001653,50.288618 m 0,0 c -0.551973,-4.573994 -2.580939,-6.495544 -12.36511,0.02483 m 0,0 c -1.526988,1.017608 -3.242864,2.240846 -5.171506,3.69172 m 0,0 c -0.771912,0.580676 -1.5778928,1.19783 -2.4194866,1.852855 -1.6239433,1.263913 -3.1771495,2.729187 -4.6564092,4.362953 m -4.763e-4,72.472964 c 2.1261017,-1.84136 4.4360012,-4.21287 6.9353601,-7.1724 m 0,0 c 2.502004,-2.96263 5.193866,-6.51447 8.081266,-10.71357 C -4.1552377,80.358421 44.97594,66.79397 68.954724,50.30874 m 0,0 c 1.97254,-2.186859 3.950447,-4.32367 5.930958,-6.402009 m 95.887428,0.06055 c 0.86583,2.269737 1.65369,4.415966 2.36745,6.445535 m 0,0 c 23.53007,66.908924 -30.08653,7.533534 -29.28056,67.516944 0.10851,8.07731 -2.39754,16.202 -0.94584,24.87836 m 0,0 c 0.49099,2.9346 1.04587,5.877 1.65593,8.80917 m 29.1335,-0.0157 c -0.65495,-3.07848 -1.32537,-6.00874 -2.0018,-8.79737 m 0,0 C 156.23126,90.726868 156.88877,29.527553 184.65504,91.678408 c 9.64626,21.591772 9.17188,7.377296 12.14859,4.282794 2.69701,-2.803739 0.76773,-8.643097 -4.30442,-10.84829 m 0,0 C 180.16288,80.149896 40.92533,61.487391 11.222812,59.060517 m 0,0 C 10.481072,58.999916 9.8069459,58.953168 9.2040877,58.920999 7.531609,58.83173 5.9279172,59.137692 4.3905838,59.794414" />
  </g>
</svg>
