<?xml version="1.0" encoding="UTF-8" standalone="no"?>
<!-- Created with Inkscape (http://www.inkscape.org/) -->

<svg
   width="400mm"
   height="225mm"
   viewBox="0 0 400 225"
   version="1.1"
   id="svg69688"
   xmlns="http://www.w3.org/2000/svg"
   xmlns:svg="http://www.w3.org/2000/svg">
  <defs
     id="defs69685" />
  <g
     id="layer1">
    <rect
       style="fill:#1e1e2e"
       id="rect69793"
       width="400"
       height="225"
       x="0"
       y="0" />
    <path
       id="path26125"
       d="m 344.67434,184.62643 h 1.48166 c -0.254,-0.66675 -0.10584,-1.29116 0.26458,-1.98966 0.80433,-1.54516 2.76224,-4.9424 4.12749,-7.33423 l -1.44991,-0.74083 c -1.04775,2.28599 -2.96333,5.5774 -3.84174,7.34481 -0.53975,1.06891 -0.77258,1.85208 -0.58208,2.71991 z m -2.19075,-4.16982 q 0,1.28058 -0.381,2.46591 -0.37042,1.17474 -1.17475,2.10607 h -1.28058 q 0.71967,-0.97366 1.09008,-2.15899 0.37042,-1.19591 0.37042,-2.42358 0,-1.25941 -0.381,-2.45532 -0.37042,-1.19591 -1.09008,-2.19074 h 1.29116 q 0.80433,0.96308 1.17475,2.16957 0.381,1.19592 0.381,2.48708 z m -3.80999,1.78858 q -0.13758,0.56091 -0.39158,1.22766 -0.254,0.66675 -0.51858,1.24883 h -1.13242 q 0.14817,-0.62442 0.29633,-1.3335 0.14817,-0.70908 0.22225,-1.25941 h 1.44992 z m -2.34949,2.7834 h -4.39207 v -0.71966 h 4.39207 z m -4.44497,-6.26531 h -1.36525 v 4.59315 h -1.57691 v -4.59315 h -0.86783 v -0.762 l 0.86783,-0.42333 v -0.42333 q 0,-0.74083 0.24342,-1.143 0.25399,-0.41275 0.70908,-0.58208 0.46566,-0.16933 1.09008,-0.16933 0.46566,0 0.83608,0.0741 0.381,0.0741 0.61383,0.16933 l -0.40217,1.15358 q -0.17991,-0.0529 -0.39158,-0.0952 -0.21167,-0.0529 -0.48683,-0.0529 -0.32808,0 -0.48683,0.20108 -0.14817,0.20109 -0.14817,0.508 v 0.35983 h 1.36525 z m -10.67855,-3.7994 -1.70391,-0.0212 c 0.0953,0.42333 0.13758,0.93133 0.13758,1.42874 0,0.91016 -0.10583,3.69357 -0.10583,5.11173 0,1.80975 1.12183,2.57175 2.85749,2.57175 2.41299,0 3.91582,-1.41817 4.59315,-2.43416 l -0.96308,-1.16417 c -0.762,1.15358 -1.87325,2.159 -3.61949,2.159 -0.8255,0 -1.4605,-0.34925 -1.4605,-1.41816 0,-1.31233 0.0847,-3.68299 0.127,-4.82599 0.0212,-0.42333 0.0741,-0.96308 0.13759,-1.40758 z m -8.01156,0.91016 -0.92075,0.39158 c 0.381,0.53975 0.65617,1.04775 0.97367,1.72508 l 0.94191,-0.41275 c -0.23283,-0.48683 -0.6985,-1.25941 -0.99483,-1.70391 z m 1.41816,-0.58208 -0.91016,0.42333 c 0.39158,0.52916 0.67733,1.016 1.016,1.68274 l 0.92074,-0.44449 c -0.23283,-0.47625 -0.71966,-1.22767 -1.02658,-1.66158 z m -4.14865,-0.26458 -1.70391,-0.0212 c 0.0847,0.41274 0.127,0.92074 0.127,1.42874 0,0.91017 -0.0952,3.69357 -0.0952,5.11174 0,1.79916 1.11124,2.56115 2.8469,2.56115 2.413,0 3.91583,-1.40758 4.60374,-2.42357 l -0.96308,-1.17475 c -0.77258,1.15358 -1.87324,2.16958 -3.61949,2.16958 -0.8255,0 -1.47108,-0.34925 -1.47108,-1.41816 0,-1.32292 0.0847,-3.68299 0.13759,-4.82599 0.0212,-0.42333 0.0741,-0.96308 0.13758,-1.40758 z m 19.68492,-12.32029 -1.21708,0.94192 c 1.38641,1.14299 3.25965,3.21732 4.15923,4.61432 l 1.29117,-1.02658 c -0.92075,-1.31233 -3.03741,-3.52424 -4.23332,-4.52966 z m -6.07482,3.47133 c 0.5715,0 1.17475,-0.32809 1.72508,-1.18533 l -0.8255,-0.62442 c -0.254,0.46567 -0.55033,0.6985 -0.87841,0.6985 -0.65617,0 -1.10066,-0.93133 -2.07433,-0.93133 -0.58208,0 -1.17474,0.32808 -1.72508,1.19591 l 0.81492,0.61383 c 0.254,-0.45508 0.55033,-0.70908 0.889,-0.70908 0.65616,0 1.10066,0.94192 2.07432,0.94192 z m -11.78978,3.6724 1.13241,-0.97366 c -0.53974,-0.65617 -1.55574,-1.70391 -2.30716,-2.31775 l -1.10066,0.9525 c 0.73025,0.635 1.62983,1.54516 2.27541,2.33891 z m -4.52965,2.27541 h 1.016 v -12.01204 h -1.016 z m 21.56877,-17.24152 2.83633,-6.2124 h -3.72532 v -1.34407 h 5.41864 v 1.00541 l -2.85749,6.55106 z m -7.21781,-2.62465 c -0.93133,0 -1.70391,0.77258 -1.70391,1.71449 0,0.94191 0.77258,1.7145 1.70391,1.7145 0.9525,0 1.71449,-0.77259 1.71449,-1.7145 0,-0.94191 -0.76199,-1.71449 -1.71449,-1.71449 z m 0,2.66699 c -0.508,0 -0.94191,-0.42333 -0.94191,-0.9525 0,-0.52916 0.43391,-0.9525 0.94191,-0.9525 0.52917,0 0.9525,0.42334 0.9525,0.9525 0,0.52917 -0.42333,0.9525 -0.9525,0.9525 z m -7.23897,0.68791 1.13241,-0.97366 c -0.53974,-0.65617 -1.55574,-1.70391 -2.30716,-2.31774 l -1.10066,0.95249 c 0.73025,0.635 1.62983,1.54516 2.27541,2.33891 z m -4.72015,-4.82598 q -0.53974,0 -0.96308,-0.22225 -0.41274,-0.23283 -0.65616,-0.635 -0.23283,-0.40217 -0.23283,-0.92075 0,-0.51858 0.23283,-0.92075 0.24342,-0.40216 0.65616,-0.63499 0.42334,-0.23284 0.96308,-0.23284 0.55034,0 0.96308,0.23284 0.41275,0.22224 0.64559,0.62441 0.23283,0.40217 0.23283,0.93133 0,0.51858 -0.23283,0.92075 -0.23284,0.40217 -0.64559,0.635 -0.41274,0.22225 -0.96308,0.22225 z m 0,-0.98425 q 0.33867,0 0.5715,-0.21167 0.23284,-0.22224 0.23284,-0.58208 0,-0.381 -0.23284,-0.59266 -0.23283,-0.22225 -0.5715,-0.22225 -0.32808,0 -0.57149,0.22225 -0.23284,0.21166 -0.23284,0.59266 0,0.35984 0.23284,0.58208 0.24341,0.21167 0.57149,0.21167 z m -5.42924,2.18016 q 0,-1.29116 0.37042,-2.48708 0.381,-1.20649 1.18533,-2.16957 h 1.29116 q -0.71966,0.99483 -1.10066,2.19074 -0.37042,1.19591 -0.37042,2.45533 0,1.22766 0.37042,2.42357 0.381,1.18533 1.09008,2.159 h -1.28058 q -0.80433,-0.93133 -1.18533,-2.10608 -0.37042,-1.18533 -0.37042,-2.46591 z m 17.73763,-10.60579 1.13241,-0.97366 c -0.53975,-0.65617 -1.55574,-1.70391 -2.30716,-2.31775 l -1.10066,0.9525 c 0.73025,0.635 1.62983,1.54516 2.27541,2.33891 z m -8.6889,-8.7418 h 1.13241 v 10.41396 h -1.13241 z m -2.40241,0.45508 -2.81516,7.55647 h -1.42874 l 2.81515,-7.55647 z"
       style="fill:#ddb6f2;fill-opacity:1" />
  </g>
</svg>
