<?xml version="1.0" encoding="UTF-8" standalone="no"?>
<!-- Created with Inkscape (http://www.inkscape.org/) -->

<svg
   width="400mm"
   height="225mm"
   viewBox="0 0 400 225"
   version="1.1"
   id="svg69688"
   xmlns="http://www.w3.org/2000/svg"
   xmlns:svg="http://www.w3.org/2000/svg">
  <defs
     id="defs69685" />
  <g
     id="layer1"
     transform="translate(-1.585482,126.18587)">
    <rect
       style="fill:#1e1e2e;"
       id="rect69793"
       width="400"
       height="225"
       x="1.585482"
       y="-126.18587" />
    <path
       id="path65788"
       d="m 354.2701,66.345187 2.84167,-7.31857 h 1.54548 l -2.84168,7.31857 z m -6.78014,1.71497 v -1.39591 h 5.98247 v 1.39591 z m -5.98249,0 v -1.39591 h 5.98249 v 1.39591 z m -5.98248,0 v -1.39591 h 5.98248 v 1.39591 z m -2.84167,-0.0398 q -0.66805,-0.86746 -1.00706,-1.9842 -0.339,-1.12669 -0.339,-2.42289 0,-1.31616 0.339,-2.46279 0.34898,-1.15661 1.00706,-2.02407 h 1.54546 q -0.65806,0.94721 -0.96717,2.09386 -0.29912,1.13668 -0.29912,2.38303 0,1.20646 0.3091,2.32318 0.31907,1.11674 0.95719,2.09388 z m -8.42534,-5.65346 v -1.39591 h 4.58657 v 1.39591 z m 0,2.3232 v -1.39593 h 4.58657 v 1.39593 z m -3.83875,-5.57368 q 0.66803,0.86746 1.00704,1.99415 0.33901,1.11674 0.33901,2.41294 0,1.31614 -0.34897,2.47275 -0.33902,1.14665 -0.99708,2.01412 h -1.54548 q 0.65808,-0.94724 0.9572,-2.08392 0.30909,-1.14663 0.30909,-2.39298 0,-1.20646 -0.31906,-2.3232 -0.3091,-1.11672 -0.94723,-2.09386 z m -8.82417,8.9438 v -1.39591 h 5.98248 v 1.39591 z m -5.98247,0 v -1.39591 h 5.98247 v 1.39591 z m -5.98249,0 v -1.39591 h 5.98247 v 1.39591 z m -0.79766,-1.71497 -2.84168,-7.31857 h -1.54547 l 2.84167,7.31857 z m 59.82481,-12.46351 -2.84168,-7.31856 h -1.54547 l 2.84167,7.31856 z m -7.91681,-6.14201 q -0.15954,-0.11969 -0.39884,-0.31906 -0.23929,-0.19942 -0.49853,-0.41877 -0.25925,-0.21935 -0.48857,-0.41878 -0.22933,-0.20939 -0.36893,-0.339 v -0.0997 h 1.95428 q 0.12961,0.20938 0.31906,0.48857 0.19942,0.27918 0.38887,0.53841 0.19941,0.25924 0.31907,0.42875 v 0.13954 z m -8.43529,6.14201 2.84167,-7.31856 h 1.54548 l -2.84169,7.31856 z m -6.78016,1.71499 v -1.39592 h 5.98248 v 1.39592 z m -23.92993,0 v -1.39592 h 5.98248 v 1.39592 z m -0.79766,-1.71499 -2.84168,-7.31856 h -1.54547 l 2.84167,7.31856 z m -8.84411,-4.64638 -0.19941,-2.57247 h 1.73492 l -0.19941,2.57247 z m -7.508,4.64638 2.84167,-7.31856 h 1.54548 l -2.84168,7.31856 z m 61.86882,-19.69231 q 0.66805,0.86746 1.00706,1.99415 0.339,1.11672 0.339,2.41294 0,1.31614 -0.34898,2.47275 -0.339,1.14665 -0.99708,2.01411 h -1.54548 q 0.65808,-0.94723 0.9572,-2.08391 0.3091,-1.14663 0.3091,-2.39298 0,-1.20646 -0.31907,-2.3232 -0.30908,-1.11672 -0.94723,-2.09386 z m -12.49341,9.52211 v -9.9708 h 1.35603 v 9.9708 z m -35.8949,0 v -9.9708 h 1.35603 v 9.9708 z m -5.1549,-0.61819 q -0.66805,-0.86746 -1.00705,-1.9842 -0.33901,-1.12669 -0.33901,-2.42289 0,-1.31616 0.33901,-2.4628 0.34899,-1.1566 1.00705,-2.02406 h 1.54547 q -0.65807,0.94721 -0.96717,2.09386 -0.29912,1.13668 -0.29912,2.38303 0,1.20646 0.30909,2.32318 0.31908,1.11674 0.9572,2.09388 z m 49.90387,-14.1386 -2.84167,-7.31856 h -1.54548 l 2.84168,7.31856 z m -11.96496,0 -2.84168,-7.31856 h -1.54548 l 2.84168,7.31856 z m -28.31708,0 2.84167,-7.31856 h 1.54548 l -2.84168,7.31856 z m -5.98248,0 2.84167,-7.31856 h 1.54548 l -2.84168,7.31856 z M 343.8207,18.784537 V 8.8137368 h 1.35603 v 9.9708002 z m -13.48052,-2.29327 2.84168,-7.3185702 h 1.54546 l -2.84168,7.3185702 z m -6.78015,1.71497 v -1.39591 h 5.98248 v 1.39591 z m -2.97131,-5.56371 q -0.4088,0 -0.70792,-0.20939 -0.29913,-0.20938 -0.29913,-0.69795 0,-0.49854 0.29913,-0.70792 0.29912,-0.20939 0.70792,-0.20939 0.39883,0 0.68799,0.20939 0.28915,0.20938 0.28915,0.70792 0,0.48857 -0.28915,0.69795 -0.28916,0.20939 -0.68799,0.20939 z m 0,3.81881 q -0.4088,0 -0.70792,-0.20938 -0.29913,-0.20939 -0.29913,-0.69795 0,-0.49855 0.29913,-0.70793 0.29912,-0.20938 0.70792,-0.20938 0.39883,0 0.68799,0.20938 0.28915,0.20938 0.28915,0.70793 0,0.48856 -0.28915,0.69795 -0.28916,0.20938 -0.68799,0.20938 z m -6.68043,2.3232 V 8.8137368 h 1.35603 V 18.784537 Z M 343.8207,6.3210468 v -9.9708003 h 1.35603 v 9.9708003 z m -11.23709,-2.29329 q -0.89738,0 -1.51557,-0.35895 -0.60821,-0.36891 -0.91731,-1.02699 -0.3091,-0.65807 -0.3091,-1.51556 0,-0.81760998 0.28915,-1.44575998 0.28915,-0.6381403 0.86746,-0.99709032 0.58828,-0.36891 1.47568,-0.36891 0.86746,0 1.48566,0.35894 0.61818,0.35895002 0.93724,1.01703032 0.32905,0.65806 0.32905,1.55544998 0,0.82756 -0.28915,1.45572 -0.28915,0.62817 -0.87744,0.97714 -0.58827,0.34898 -1.47567,0.34898 z m -0.0499,-1.39591 q 0.52844,0 0.76775,-0.39883 0.23929,-0.40879 0.23929,-1.04693 0,-0.65807998 -0.23929,-1.05690998 -0.23931,-0.4088 -0.76775,-0.4088 -0.53842,0 -0.76776,0.42874 -0.22932,0.41878 -0.22932,1.03696998 0,0.65807 0.23929,1.0569 0.23931,0.38886 0.75779,0.38886 z m -8.97366,3.1109 v -1.39593 h 5.98248 v 1.39593 z m -2.94138,-1.71499 q -0.89739,0 -1.51557,-0.35895 -0.60822,-0.36891 -0.91731,-1.02699 -0.30909,-0.65807 -0.30909,-1.51556 0,-0.81760998 0.28915,-1.44575998 0.28915,-0.6381403 0.86745,-0.99709032 0.58827,-0.36891 1.47569,-0.36891 0.86744,0 1.48564,0.35894 0.61819,0.35895002 0.93725,1.01703032 0.32905,0.65806 0.32905,1.55544998 0,0.82756 -0.28916,1.45572 -0.28915,0.62817 -0.87743,0.97714 -0.58828,0.34898 -1.47567,0.34898 z m -0.0499,-1.39591 q 0.52847,0 0.76775,-0.39883 0.2393,-0.40879 0.2393,-1.04693 0,-0.65807998 -0.2393,-1.05690998 -0.23928,-0.4088 -0.76775,-0.4088 -0.53841,0 -0.76775,0.42874 -0.22933,0.41878 -0.22933,1.03696998 0,0.65807 0.2393,1.0569 0.23931,0.38886 0.75778,0.38886 z m -6.66043,3.6892 v -9.9708003 h 1.35603 v 9.9708003 z m 24.62789,-14.7867003 q -0.40882,0 -0.70794,-0.20938 -0.29912,-0.20939 -0.29912,-0.69796 0,-0.49853 0.29912,-0.7079205 0.29912,-0.20938 0.70794,-0.20938 0.39883,0 0.68798,0.20938 0.28916,0.2093905 0.28916,0.7079205 0,0.48857 -0.28916,0.69796 -0.28915,0.20938 -0.68798,0.20938 z m -7.49804,-2.0140905 v -1.495629 h 2.99122 v 1.495629 z m -5.9825,0 v -1.495629 h 2.99125 v 1.495629 z m -4.46692,2.0140905 q -0.4088,0 -0.70792,-0.20938 -0.29913,-0.20939 -0.29913,-0.69796 0,-0.49853 0.29913,-0.7079205 0.29912,-0.20938 0.70792,-0.20938 0.39883,0 0.68799,0.20938 0.28915,0.2093905 0.28915,0.7079205 0,0.48857 -0.28915,0.69796 -0.28916,0.20938 -0.68799,0.20938 z"
       style="fill:#ddb6f2;" />
  </g>
</svg>
